Men.In.Black.3.2012.TS.RMVB-NoGRP





Agent J travels in time to MIB's early years in the 1960s, to stop an alien from assassinating his friend Agent K and changing history. 
 
http://www.imdb.com/title/tt1409024/
Format : RealMedia
File size : 537 MiB
Duration : 1h 32mn
Overall bit rate : 797 Kbps

Video
ID : 0
Format : RealVideo 4
Codec ID : RV40
Codec ID/Info : Based on AVC (H.264), Real Player 9
Duration : 1h 32mn
Bit rate : 733 Kbps
Width : 704 pixels
Height : 480 pixels
Display aspect ratio : 3:2
Frame rate : 29.970 fps
Standard : NTSC
Bits/(Pixel*Frame) : 0.072
Stream size : 484 MiB (90%)

Audio
ID : 1
Format : AAC
Format/Info : Advanced Audio Codec
Format profile : HE-AAC
Codec ID : racp
Codec ID/Info : Real Player 10
Duration : 1h 32mn
Bit rate : 64.0 Kbps
Channel(s) : 2 channels
Sampling rate : 44.1 KHz
Bit depth : 16 bits
Compression mode : Lossy
Stream size : 42.3 MiB (8%)